<svg width="24" height="24" viewBox="0 0 24 24" fill="none" xmlns="http://www.w3.org/2000/svg">
<path d="M0 0.000101458V2.09848C3.64679 2.78573 6.88649 3.86411 10.3834 5.34219V5.34382C11.0327 5.57527 11.4962 5.95828 11.7422 6.41915C11.9923 6.88763 12.0089 7.41956 11.8308 7.86891C11.5156 8.66427 10.5751 9.16691 9.51344 8.90303C8.98978 9.91446 8.30211 10.9142 7.36682 11.8945C7.92266 12.2454 8.50073 12.5596 9.09735 12.8351H14.6275C15.6509 10.0741 16.2968 7.26745 16.5685 4.66647C11.2778 3.89395 6.26134 2.2975 1.49333 0H5.05918e-05L0 0.000101458ZM16.0512 11.6234C15.9198 12.0335 15.7811 12.4412 15.6351 12.8463H17.1V13.7949H8.91537V13.7837H8.88535L8.79206 13.7409C7.95127 13.3596 7.14151 12.9019 6.35594 12.3673L6.19619 12.2595C5.64226 12.4848 5.19873 12.7371 4.9022 12.9874C4.5467 13.2876 4.41813 13.5491 4.41813 13.7789C4.41813 14.0088 4.5467 14.2718 4.9022 14.572C5.2577 14.8723 5.82186 15.176 6.53787 15.4318C7.9699 15.9432 10.0041 16.2723 12.2531 16.2723C14.502 16.2723 16.538 15.9432 17.9699 15.4318C18.686 15.176 19.2501 14.8723 19.6057 14.572C19.9612 14.2719 20.0897 14.0088 20.0897 13.779C20.0897 13.5492 19.9611 13.2876 19.6057 12.9875C19.2501 12.6873 18.686 12.3835 17.97 12.1278C17.414 11.9292 16.7666 11.7584 16.0513 11.6234H16.0512ZM4.20471 15.2191C3.94939 19.4016 2.17345 20.4463 0.588452 21.5686C1.6297 21.7988 2.79952 21.9964 3.97693 21.9524C5.25274 21.4527 6.58095 20.1106 7.5408 19.0354C7.12804 20.0391 6.54865 21.0162 5.79123 21.9984L4.47679 24C6.73129 23.6251 8.85083 23.1252 11.0194 21.6462C10.6174 20.5888 10.3118 19.5589 10.0971 18.5406C10.9483 19.9013 11.893 21.2187 12.9887 22.4313C12.9902 22.433 12.992 22.4344 12.9935 22.4361L14.6116 23.992C15.886 22.3968 16.8261 20.6656 17.5761 18.9227C17.5683 19.7285 17.5027 20.5621 17.323 21.4399C19.5489 21.9436 21.7741 21.6219 24 21.5683C21.7307 20.6427 20.4185 18.796 20.1861 15.3206C19.7037 15.7199 19.0603 16.0488 18.2879 16.3247C16.7126 16.8873 14.5932 17.2208 12.2531 17.2208C9.91313 17.2208 7.79516 16.8872 6.21988 16.3246C5.43224 16.0433 4.77859 15.7067 4.2932 15.2967C4.26283 15.2712 4.23372 15.2455 4.20461 15.2191L4.20471 15.2191Z" fill="white"/>
</svg>
