<svg width="16" height="15" viewBox="0 0 16 15" fill="none" xmlns="http://www.w3.org/2000/svg">
<path d="M12.2514 15C12.038 14.9998 11.8295 14.9369 11.6527 14.8196L8.0507 12.446C8.03296 12.4339 8.0119 12.4275 7.99034 12.4275C7.96878 12.4275 7.94773 12.4339 7.92999 12.446L4.32803 14.8196C4.14715 14.9383 3.93382 15.0001 3.71636 14.9969C3.49889 14.9936 3.28759 14.9253 3.11051 14.8012C2.93342 14.6771 2.79894 14.5029 2.72491 14.3018C2.65088 14.1008 2.64081 13.8823 2.69604 13.6755L3.87899 9.57393C3.88458 9.55331 3.8839 9.53153 3.87704 9.51128C3.87017 9.49103 3.85742 9.4732 3.84036 9.46L0.431534 6.82532C0.252082 6.69388 0.118969 6.51052 0.0508581 6.30095C-0.0172524 6.09138 -0.0169442 5.86611 0.0517394 5.65671C0.120423 5.44732 0.254038 5.26432 0.433849 5.13335C0.61366 5.00239 0.83065 4.93004 1.05439 4.92645L5.39992 4.76505C5.42129 4.7636 5.44177 4.7561 5.45891 4.74347C5.47604 4.73084 5.48909 4.7136 5.49649 4.69384L6.99328 0.691972C7.06873 0.489097 7.20577 0.313916 7.38583 0.190147C7.5659 0.066378 7.78029 0 8 0C8.21971 0 8.43411 0.066378 8.61417 0.190147C8.79424 0.313916 8.93127 0.489097 9.00672 0.691972L10.5035 4.69384C10.5109 4.7136 10.524 4.73084 10.5411 4.74347C10.5582 4.7561 10.5787 4.7636 10.6001 4.76505L14.9456 4.92645C15.1694 4.93004 15.3863 5.00239 15.5662 5.13335C15.746 5.26432 15.8796 5.44732 15.9483 5.65671C16.0169 5.86611 16.0173 6.09138 15.9491 6.30095C15.881 6.51052 15.7479 6.69388 15.5685 6.82532L12.1596 9.46C12.1421 9.47278 12.1289 9.49057 12.122 9.51096C12.1151 9.53135 12.1147 9.55334 12.121 9.57393L13.304 13.6755C13.3455 13.8328 13.3496 13.9974 13.316 14.1566C13.2824 14.3157 13.212 14.4651 13.1102 14.5932C13.0084 14.7212 12.878 14.8246 12.7291 14.8951C12.5801 14.9656 12.4167 15.0015 12.2514 15ZM7.99276 11.4775C8.20657 11.484 8.41349 11.5534 8.58665 11.6769L12.1886 14.0505C12.2069 14.0642 12.2291 14.0716 12.252 14.0718C12.275 14.072 12.2973 14.0649 12.3158 14.0515C12.3343 14.0382 12.3479 14.0193 12.3545 13.9977C12.3612 13.9761 12.3606 13.953 12.3528 13.9318L11.1698 9.83028C11.1116 9.62908 11.1159 9.41536 11.1822 9.21658C11.2484 9.01779 11.3736 8.84301 11.5416 8.71469L14.9504 6.08001C14.969 6.06717 14.9829 6.04881 14.9901 6.02761C14.9973 6.00642 14.9974 5.98352 14.9904 5.96227C14.9834 5.94102 14.9696 5.92255 14.9511 5.90956C14.9326 5.89658 14.9104 5.88977 14.8877 5.89013L10.5421 5.72872C10.3294 5.72057 10.1239 5.65029 9.95188 5.52685C9.7799 5.40341 9.6492 5.2324 9.57646 5.03564L8.07967 1.03377C8.07292 1.01252 8.05944 0.993948 8.0412 0.98076C8.02296 0.967573 8.00091 0.96046 7.97827 0.96046C7.95563 0.96046 7.93358 0.967573 7.91534 0.98076C7.8971 0.993948 7.88363 1.01252 7.87688 1.03377L6.39457 5.03089C6.32183 5.22765 6.19113 5.39866 6.01915 5.5221C5.84716 5.64554 5.64167 5.71582 5.42889 5.72398L1.08336 5.88538C1.06064 5.88502 1.0384 5.89183 1.01991 5.90482C1.00142 5.9178 0.987651 5.93628 0.980627 5.95752C0.973603 5.97877 0.973695 6.00167 0.980889 6.02287C0.988083 6.04406 1.002 6.06243 1.02059 6.07527L4.43425 8.71469C4.60177 8.84343 4.72656 9.01823 4.79276 9.21688C4.85896 9.41553 4.86358 9.62904 4.80604 9.83028L3.62791 13.9318C3.62088 13.9524 3.62085 13.9746 3.62782 13.9952C3.63479 14.0157 3.64838 14.0335 3.66654 14.0458C3.68403 14.0605 3.70629 14.0686 3.72931 14.0686C3.75233 14.0686 3.77459 14.0605 3.79208 14.0458L7.39404 11.6722C7.57007 11.5574 7.77669 11.4963 7.98793 11.4965L7.99276 11.4775Z" fill="white" fill-opacity="0.9"/>
</svg>
