<svg width="18" height="18" viewBox="0 0 18 18" fill="none" xmlns="http://www.w3.org/2000/svg">
<path d="M1 2.7778H4.55556M17 2.7778H8.11111M1 9.00002H11.6667M17 9.00002H15.2222M1 15.2222H2.77778M17 15.2222H6.33333" stroke="white" stroke-width="1.33333" stroke-linecap="round"/>
<path d="M6.33344 4.55556C7.31528 4.55556 8.11122 3.75962 8.11122 2.77778C8.11122 1.79594 7.31528 1 6.33344 1C5.3516 1 4.55566 1.79594 4.55566 2.77778C4.55566 3.75962 5.3516 4.55556 6.33344 4.55556Z" stroke="white" stroke-width="1.33333" stroke-linecap="round"/>
<path d="M13.4448 10.7778C14.4266 10.7778 15.2225 9.98182 15.2225 8.99998C15.2225 8.01814 14.4266 7.2222 13.4448 7.2222C12.4629 7.2222 11.667 8.01814 11.667 8.99998C11.667 9.98182 12.4629 10.7778 13.4448 10.7778Z" stroke="white" stroke-width="1.33333" stroke-linecap="round"/>
<path d="M4.55512 17C5.53696 17 6.3329 16.2041 6.3329 15.2222C6.3329 14.2404 5.53696 13.4445 4.55512 13.4445C3.57328 13.4445 2.77734 14.2404 2.77734 15.2222C2.77734 16.2041 3.57328 17 4.55512 17Z" stroke="white" stroke-width="1.33333" stroke-linecap="round"/>
</svg>
