<svg width="32" height="32" viewBox="0 0 32 32" fill="none" xmlns="http://www.w3.org/2000/svg">
<rect width="32" height="32" rx="4" fill="#30A4E6"/>
<path d="M4 4.0001V6.09848C7.64679 6.78573 10.8865 7.86411 14.3834 9.34219V9.34382C15.0327 9.57527 15.4962 9.95828 15.7422 10.4191C15.9923 10.8876 16.0089 11.4196 15.8308 11.8689C15.5156 12.6643 14.5751 13.1669 13.5134 12.903C12.9898 13.9145 12.3021 14.9142 11.3668 15.8945C11.9227 16.2454 12.5007 16.5596 13.0973 16.8351H18.6275C19.6509 14.0741 20.2968 11.2674 20.5685 8.66647C15.2778 7.89395 10.2613 6.2975 5.49333 4H4.00005L4 4.0001ZM20.0512 15.6234C19.9198 16.0335 19.7811 16.4412 19.6351 16.8463H21.1V17.7949H12.9154V17.7837H12.8854L12.7921 17.7409C11.9513 17.3596 11.1415 16.9019 10.3559 16.3673L10.1962 16.2595C9.64226 16.4848 9.19873 16.7371 8.9022 16.9874C8.5467 17.2876 8.41813 17.5491 8.41813 17.7789C8.41813 18.0088 8.5467 18.2718 8.9022 18.572C9.2577 18.8723 9.82186 19.176 10.5379 19.4318C11.9699 19.9432 14.0041 20.2723 16.2531 20.2723C18.502 20.2723 20.538 19.9432 21.9699 19.4318C22.686 19.176 23.2501 18.8723 23.6057 18.572C23.9612 18.2719 24.0897 18.0088 24.0897 17.779C24.0897 17.5492 23.9611 17.2876 23.6057 16.9875C23.2501 16.6873 22.686 16.3835 21.97 16.1278C21.414 15.9292 20.7666 15.7584 20.0513 15.6234H20.0512ZM8.20471 19.2191C7.94939 23.4016 6.17345 24.4463 4.58845 25.5686C5.6297 25.7988 6.79952 25.9964 7.97693 25.9524C9.25274 25.4527 10.5809 24.1106 11.5408 23.0354C11.128 24.0391 10.5487 25.0162 9.79123 25.9984L8.47679 28C10.7313 27.6251 12.8508 27.1252 15.0194 25.6462C14.6174 24.5888 14.3118 23.5589 14.0971 22.5406C14.9483 23.9013 15.893 25.2187 16.9887 26.4313C16.9902 26.433 16.992 26.4344 16.9935 26.4361L18.6116 27.992C19.886 26.3968 20.8261 24.6656 21.5761 22.9227C21.5683 23.7285 21.5027 24.5621 21.323 25.4399C23.5489 25.9436 25.7741 25.6219 28 25.5683C25.7307 24.6427 24.4185 22.796 24.1861 19.3206C23.7037 19.7199 23.0603 20.0488 22.2879 20.3247C20.7126 20.8873 18.5932 21.2208 16.2531 21.2208C13.9131 21.2208 11.7952 20.8872 10.2199 20.3246C9.43224 20.0433 8.77859 19.7067 8.2932 19.2967C8.26283 19.2712 8.23372 19.2455 8.20461 19.2191L8.20471 19.2191Z" fill="white"/>
</svg>
