<svg width="12" height="12" viewBox="0 0 12 12" fill="none" xmlns="http://www.w3.org/2000/svg">
<path fill-rule="evenodd" clip-rule="evenodd" d="M11.8401 0.932218C11.8908 0.88151 11.931 0.82131 11.9584 0.755057C11.9859 0.688803 12 0.617793 12 0.546081C12 0.474368 11.9859 0.403358 11.9584 0.337105C11.931 0.270851 11.8908 0.210652 11.8401 0.159943C11.7893 0.109235 11.7291 0.0690111 11.6629 0.041568C11.5966 0.0141248 11.5256 0 11.4539 0C11.3822 0 11.3112 0.0141248 11.2449 0.041568C11.1787 0.0690111 11.1185 0.109235 11.0678 0.159943L6 5.22882L0.932218 0.159943C0.88151 0.109235 0.82131 0.0690111 0.755057 0.041568C0.688803 0.0141248 0.617793 5.34299e-10 0.546081 0C0.474368 -5.34299e-10 0.403358 0.0141248 0.337105 0.041568C0.270851 0.0690111 0.210652 0.109235 0.159943 0.159943C0.109235 0.210652 0.0690111 0.270851 0.041568 0.337105C0.0141248 0.403358 -5.34299e-10 0.474368 0 0.546081C5.34299e-10 0.617793 0.0141248 0.688803 0.041568 0.755057C0.0690111 0.82131 0.109235 0.88151 0.159943 0.932218L5.22882 6L0.159943 11.0678C0.0575332 11.1702 0 11.3091 0 11.4539C0 11.5987 0.0575332 11.7376 0.159943 11.8401C0.262353 11.9425 0.401251 12 0.546081 12C0.69091 12 0.829808 11.9425 0.932218 11.8401L6 6.77118L11.0678 11.8401C11.1702 11.9425 11.3091 12 11.4539 12C11.5987 12 11.7376 11.9425 11.8401 11.8401C11.9425 11.7376 12 11.5987 12 11.4539C12 11.3091 11.9425 11.1702 11.8401 11.0678L6.77118 6L11.8401 0.932218Z" fill="white" fill-opacity="0.7"/>
</svg>
