<svg width="30" height="30" viewBox="0 0 30 30" fill="none" xmlns="http://www.w3.org/2000/svg">
<path opacity="0.8" d="M15 0.21875C6.97266 0.21875 0.46875 6.72266 0.46875 14.75C0.46875 22.7773 6.97266 29.2812 15 29.2812C23.0273 29.2812 29.5312 22.7773 29.5312 14.75C29.5312 6.72266 23.0273 0.21875 15 0.21875ZM15 5.84375C17.8125 5.84375 20.1562 8.1875 20.1562 11C20.1562 13.8711 17.8125 16.1562 15 16.1562C12.1289 16.1562 9.84375 13.8711 9.84375 11C9.84375 8.1875 12.1289 5.84375 15 5.84375ZM15 26C11.543 26 8.4375 24.4766 6.38672 22.0156C7.5 19.9648 9.66797 18.5 12.1875 18.5C12.3047 18.5 12.4219 18.5586 12.5977 18.6172C13.3594 18.8516 14.1211 18.9688 15 18.9688C15.8203 18.9688 16.6406 18.8516 17.3438 18.6172C17.5195 18.5586 17.6367 18.5 17.8125 18.5C20.2734 18.5 22.4414 19.9648 23.5547 22.0156C21.5039 24.4766 18.3984 26 15 26Z" fill="#15BE8B"/>
</svg>
