<svg width="31" height="24" viewBox="0 0 31 24" fill="none" xmlns="http://www.w3.org/2000/svg">
<path opacity="0.8" d="M24.475 23C27.5805 23 30.1 20.4805 30.1 17.375V6.125C30.1 3.01953 27.5805 0.5 24.475 0.5H19.5531C19.143 0.5 18.85 0.851562 18.85 1.20312V3.54688C18.85 3.95703 19.143 4.25 19.5531 4.25H24.475C25.4711 4.25 26.35 5.12891 26.35 6.125V17.375C26.35 18.4297 25.4711 19.25 24.475 19.25H19.5531C19.143 19.25 18.85 19.6016 18.85 19.9531V22.2969C18.85 22.707 19.143 23 19.5531 23H24.475ZM21.7211 11.2227L11.8773 1.37891C10.9984 0.5 9.475 1.14453 9.475 2.375V8H1.50625C0.685938 8 0.1 8.64453 0.1 9.40625V15.0312C0.1 15.8516 0.685938 16.4375 1.50625 16.4375H9.475V22.0625C9.475 23.3516 10.9984 23.9375 11.8773 23.0586L21.7211 13.2148C22.2484 12.6875 22.2484 11.8086 21.7211 11.2227Z" fill="#15BE8B"/>
</svg>
