<svg width="18" height="16" viewBox="0 0 18 16" fill="none" xmlns="http://www.w3.org/2000/svg">
<path d="M16.5 5.02332V11.3333C16.5 11.8435 16.2808 12.3343 15.887 12.7055C15.4933 13.0767 14.9549 13.3001 14.382 13.33L14.25 13.3333H3.75C3.17609 13.3333 2.62386 13.1384 2.2063 12.7885C1.78874 12.4385 1.53742 11.9599 1.50375 11.4506L1.5 11.3333V5.02332L8.58375 9.22132L8.67075 9.26532C8.77328 9.30984 8.88589 9.33299 9 9.33299C9.11411 9.33299 9.22672 9.30984 9.32925 9.26532L9.41625 9.22132L16.5 5.02332Z" fill="#717171"/>
<path d="M14.2502 2.66669C15.0602 2.66669 15.7705 3.04669 16.1665 3.61802L9.00023 7.86469L1.83398 3.61802C2.02203 3.34653 2.28039 3.11895 2.58752 2.95428C2.89464 2.7896 3.24161 2.69259 3.59948 2.67135L3.75023 2.66669H14.2502Z" fill="#717171"/>
</svg>
