<svg width="32" height="24" viewBox="0 0 32 24" fill="none" xmlns="http://www.w3.org/2000/svg">
<path d="M26.931 1.99455C24.9365 1.06479 22.7771 0.389967 20.5277 6.89792e-05C20.5079 -0.00056176 20.4883 0.00313939 20.4702 0.0109123C20.452 0.0186852 20.4358 0.030341 20.4227 0.0450575C20.1528 0.539928 19.8378 1.18476 19.6279 1.67963C17.242 1.31972 14.8156 1.31972 12.4298 1.67963C12.2198 1.16976 11.9049 0.539928 11.62 0.0450575C11.605 0.0150654 11.56 6.89792e-05 11.515 6.89792e-05C9.2656 0.389967 7.12116 1.06479 5.11169 1.99455C5.09669 1.99455 5.0817 2.00954 5.0667 2.02454C0.987768 8.12794 -0.136938 14.0664 0.417917 19.9448C0.417917 19.9748 0.432913 20.0048 0.462905 20.0198C3.1622 21.9993 5.75652 23.199 8.32085 23.9938C8.36584 24.0088 8.41082 23.9938 8.42582 23.9638C9.02566 23.139 9.56552 22.2692 10.0304 21.3545C10.0604 21.2945 10.0304 21.2345 9.97042 21.2195C9.11564 20.8896 8.30585 20.4997 7.51106 20.0498C7.45108 20.0198 7.45108 19.9299 7.49606 19.8849C7.66102 19.7649 7.82598 19.6299 7.99093 19.51C8.02093 19.48 8.06592 19.48 8.09591 19.495C13.2546 21.8493 18.8181 21.8493 23.9168 19.495C23.9468 19.48 23.9917 19.48 24.0217 19.51C24.1867 19.6449 24.3517 19.7649 24.5166 19.8999C24.5766 19.9448 24.5766 20.0348 24.5016 20.0648C23.7218 20.5297 22.897 20.9046 22.0423 21.2345C21.9823 21.2495 21.9673 21.3245 21.9823 21.3695C22.4621 22.2842 23.002 23.154 23.5869 23.9788C23.6318 23.9938 23.6768 24.0088 23.7218 23.9938C26.3011 23.199 28.8955 21.9993 31.5948 20.0198C31.6247 20.0048 31.6397 19.9748 31.6397 19.9448C32.2996 13.1516 30.545 7.25817 26.991 2.02454C26.976 2.00954 26.961 1.99455 26.931 1.99455ZM10.8102 16.3608C9.2656 16.3608 7.97594 14.9362 7.97594 13.1816C7.97594 11.4271 9.23561 10.0024 10.8102 10.0024C12.3998 10.0024 13.6595 11.4421 13.6445 13.1816C13.6445 14.9362 12.3848 16.3608 10.8102 16.3608ZM21.2625 16.3608C19.7179 16.3608 18.4282 14.9362 18.4282 13.1816C18.4282 11.4271 19.6879 10.0024 21.2625 10.0024C22.852 10.0024 24.1117 11.4421 24.0967 13.1816C24.0967 14.9362 22.852 16.3608 21.2625 16.3608Z" fill="white"/>
</svg>
