<svg width="31" height="24" viewBox="0 0 31 24" fill="none" xmlns="http://www.w3.org/2000/svg">
<path d="M30.3107 2.82353C29.2237 3.31765 28.0519 3.64235 26.8378 3.79765C28.0801 3.04941 29.0401 1.86353 29.4919 0.437647C28.3201 1.14353 27.0213 1.63765 25.6519 1.92C24.5366 0.705883 22.9696 0 21.1907 0C17.8731 0 15.1625 2.71059 15.1625 6.05647C15.1625 6.53647 15.219 7.00235 15.3178 7.44C10.2919 7.18588 5.81661 4.77176 2.83779 1.11529C2.31543 2.00471 2.01896 3.04941 2.01896 4.15059C2.01896 6.25412 3.07779 8.11765 4.71543 9.17647C3.71308 9.17647 2.78132 8.89412 1.96249 8.47059V8.51294C1.96249 11.4494 4.05191 13.9059 6.81896 14.4565C5.93058 14.6996 4.99792 14.7334 4.09426 14.5553C4.4777 15.7588 5.22866 16.8119 6.24158 17.5665C7.25449 18.3211 8.47842 18.7393 9.74132 18.7624C7.60056 20.4571 4.94696 21.3732 2.21661 21.36C1.73661 21.36 1.25661 21.3318 0.776611 21.2753C3.45896 22.9976 6.64955 24 10.066 24C21.1907 24 27.3037 14.7671 27.3037 6.76235C27.3037 6.49412 27.3037 6.24 27.2896 5.97176C28.4754 5.12471 29.4919 4.05176 30.3107 2.82353Z" fill="white"/>
</svg>
